<svg width="20" height="20" viewBox="0 0 20 20" fill="none" xmlns="http://www.w3.org/2000/svg">
<g id="Group">
<path id="Vector" d="M9.99935 18.3334C14.6017 18.3334 18.3327 14.6025 18.3327 10.0001C18.3327 5.39771 14.6017 1.66675 9.99935 1.66675C5.39698 1.66675 1.66602 5.39771 1.66602 10.0001C1.66602 14.6025 5.39698 18.3334 9.99935 18.3334Z" stroke="#BDBDBD" stroke-width="1.5" stroke-linecap="round" stroke-linejoin="round"/>
<path id="Vector_2" d="M12.357 12.3584C11.8907 12.8242 11.2967 13.1413 10.6502 13.2696C10.0037 13.398 9.33371 13.3317 8.72483 13.0793C8.11596 12.8269 7.59559 12.3997 7.22948 11.8516C6.86337 11.3035 6.66797 10.6592 6.66797 10.0001C6.66797 9.34097 6.86337 8.69665 7.22948 8.14857C7.59559 7.60048 8.11596 7.17324 8.72483 6.92084C9.33371 6.66844 10.0037 6.60221 10.6502 6.73053C11.2967 6.85884 11.8907 7.17595 12.357 7.64175" stroke="#BDBDBD" stroke-width="1.5" stroke-linecap="round" stroke-linejoin="round"/>
</g>
</svg>
