<svg width="50" height="40" viewBox="0 0 50 40" fill="none" xmlns="http://www.w3.org/2000/svg">
<g id="Group">
<path id="Vector" d="M30.8332 1.33398H19.1665L13.3332 8.33398H6.33317C5.09549 8.33398 3.90851 8.82565 3.03334 9.70082C2.15817 10.576 1.6665 11.763 1.6665 13.0007V34.0007C1.6665 35.2383 2.15817 36.4253 3.03334 37.3005C3.90851 38.1757 5.09549 38.6673 6.33317 38.6673H43.6665C44.9042 38.6673 46.0912 38.1757 46.9663 37.3005C47.8415 36.4253 48.3332 35.2383 48.3332 34.0007V13.0007C48.3332 11.763 47.8415 10.576 46.9663 9.70082C46.0912 8.82565 44.9042 8.33398 43.6665 8.33398H36.6665L30.8332 1.33398Z" stroke="#7A7A7A" stroke-width="2" stroke-linecap="round" stroke-linejoin="round"/>
<path id="Vector_2" d="M25 29.334C28.866 29.334 32 26.2 32 22.334C32 18.468 28.866 15.334 25 15.334C21.134 15.334 18 18.468 18 22.334C18 26.2 21.134 29.334 25 29.334Z" stroke="#7A7A7A" stroke-width="2" stroke-linecap="round" stroke-linejoin="round"/>
</g>
</svg>
