<svg width="24" height="24" viewBox="0 0 24 24" fill="none" xmlns="http://www.w3.org/2000/svg">
<g id="Icons/Property 25">
<path id="Vector" d="M11.6461 10.9401L11.9997 11.2936L12.3533 10.9401L16.5959 6.69737C16.7912 6.50212 17.1078 6.50212 17.303 6.69738C17.4983 6.89264 17.4983 7.20922 17.303 7.40447L13.0604 11.6471L12.7068 12.0007L13.0604 12.3543L17.303 16.5969C17.4983 16.7921 17.4983 17.1087 17.303 17.304C17.1078 17.4992 16.7912 17.4992 16.596 17.304L12.3533 13.0613L11.9997 12.7078L11.6462 13.0613L7.40351 17.3039C7.20825 17.4992 6.89167 17.4992 6.69641 17.304C6.50115 17.1087 6.50115 16.7921 6.69641 16.5968L10.9391 12.3543L11.2926 12.0007L10.9391 11.6471L6.6964 7.40448C6.50114 7.20922 6.50114 6.89264 6.69641 6.69738C6.89167 6.50212 7.20825 6.50212 7.40351 6.69738L11.6461 10.9401Z" fill="#060910" stroke="#3A3A3A"/>
</g>
</svg>
