<svg width="21" height="21" viewBox="0 0 21 21" fill="none" xmlns="http://www.w3.org/2000/svg">
<g id="Group">
<path id="Vector" d="M10 19C8.24407 19.0053 6.55026 18.3505 5.25453 17.1654C3.95879 15.9803 3.15578 14.3515 3.00475 12.6021C2.85371 10.8527 3.3657 9.11036 4.43916 7.72074C5.51262 6.33112 7.06914 5.3957 8.80001 5.1C14.5 4 16 3.48 18 1C19 3 20 5.18 20 9C20 14.5 15.22 19 10 19Z" stroke="#3A3A3A" stroke-width="2" stroke-linecap="round" stroke-linejoin="round"/>
<path id="Vector_2" d="M1 20C1 17 2.85 14.64 6.08 14C8.5 13.52 11 12 12 11" stroke="#3A3A3A" stroke-width="2" stroke-linecap="round" stroke-linejoin="round"/>
</g>
</svg>
