<svg width="48" height="24" viewBox="0 0 48 24" fill="none" xmlns="http://www.w3.org/2000/svg">
<mask id="path-1-inside-1_1354_8010" fill="white">
<path d="M1.84375 10.472L5.68375 2.072H6.55975L10.3998 10.472H9.46375L5.93575 2.588H6.29575L2.76775 10.472H1.84375ZM3.35575 8.228L3.61975 7.508H8.50375L8.76775 8.228H3.35575ZM14.5594 10.472V2.84H11.6074V2.072H18.3994V2.84H15.4474V10.472H14.5594ZM21.3781 10.472V2.072H22.2661V9.704H26.9701V10.472H21.3781ZM28.6605 10.472L32.5005 2.072H33.3765L37.2165 10.472H36.2805L32.7525 2.588H33.1125L29.5845 10.472H28.6605ZM30.1725 8.228L30.4365 7.508H35.3205L35.5845 8.228H30.1725ZM42.482 10.544C41.858 10.544 41.258 10.444 40.682 10.244C40.114 10.036 39.674 9.772 39.362 9.452L39.71 8.768C40.006 9.056 40.402 9.3 40.898 9.5C41.402 9.692 41.93 9.788 42.482 9.788C43.01 9.788 43.438 9.724 43.766 9.596C44.102 9.46 44.346 9.28 44.498 9.056C44.658 8.832 44.738 8.584 44.738 8.312C44.738 7.984 44.642 7.72 44.45 7.52C44.266 7.32 44.022 7.164 43.718 7.052C43.414 6.932 43.078 6.828 42.71 6.74C42.342 6.652 41.974 6.56 41.606 6.464C41.238 6.36 40.898 6.224 40.586 6.056C40.282 5.888 40.034 5.668 39.842 5.396C39.658 5.116 39.566 4.752 39.566 4.304C39.566 3.888 39.674 3.508 39.89 3.164C40.114 2.812 40.454 2.532 40.91 2.324C41.366 2.108 41.95 2 42.662 2C43.134 2 43.602 2.068 44.066 2.204C44.53 2.332 44.93 2.512 45.266 2.744L44.966 3.452C44.606 3.212 44.222 3.036 43.814 2.924C43.414 2.812 43.026 2.756 42.65 2.756C42.146 2.756 41.73 2.824 41.402 2.96C41.074 3.096 40.83 3.28 40.67 3.512C40.518 3.736 40.442 3.992 40.442 4.28C40.442 4.608 40.534 4.872 40.718 5.072C40.91 5.272 41.158 5.428 41.462 5.54C41.774 5.652 42.114 5.752 42.482 5.84C42.85 5.928 43.214 6.024 43.574 6.128C43.942 6.232 44.278 6.368 44.582 6.536C44.894 6.696 45.142 6.912 45.326 7.184C45.518 7.456 45.614 7.812 45.614 8.252C45.614 8.66 45.502 9.04 45.278 9.392C45.054 9.736 44.71 10.016 44.246 10.232C43.79 10.44 43.202 10.544 42.482 10.544Z"/>
</mask>
<path d="M1.84375 10.472L5.68375 2.072H6.55975L10.3998 10.472H9.46375L5.93575 2.588H6.29575L2.76775 10.472H1.84375ZM3.35575 8.228L3.61975 7.508H8.50375L8.76775 8.228H3.35575ZM14.5594 10.472V2.84H11.6074V2.072H18.3994V2.84H15.4474V10.472H14.5594ZM21.3781 10.472V2.072H22.2661V9.704H26.9701V10.472H21.3781ZM28.6605 10.472L32.5005 2.072H33.3765L37.2165 10.472H36.2805L32.7525 2.588H33.1125L29.5845 10.472H28.6605ZM30.1725 8.228L30.4365 7.508H35.3205L35.5845 8.228H30.1725ZM42.482 10.544C41.858 10.544 41.258 10.444 40.682 10.244C40.114 10.036 39.674 9.772 39.362 9.452L39.71 8.768C40.006 9.056 40.402 9.3 40.898 9.5C41.402 9.692 41.93 9.788 42.482 9.788C43.01 9.788 43.438 9.724 43.766 9.596C44.102 9.46 44.346 9.28 44.498 9.056C44.658 8.832 44.738 8.584 44.738 8.312C44.738 7.984 44.642 7.72 44.45 7.52C44.266 7.32 44.022 7.164 43.718 7.052C43.414 6.932 43.078 6.828 42.71 6.74C42.342 6.652 41.974 6.56 41.606 6.464C41.238 6.36 40.898 6.224 40.586 6.056C40.282 5.888 40.034 5.668 39.842 5.396C39.658 5.116 39.566 4.752 39.566 4.304C39.566 3.888 39.674 3.508 39.89 3.164C40.114 2.812 40.454 2.532 40.91 2.324C41.366 2.108 41.95 2 42.662 2C43.134 2 43.602 2.068 44.066 2.204C44.53 2.332 44.93 2.512 45.266 2.744L44.966 3.452C44.606 3.212 44.222 3.036 43.814 2.924C43.414 2.812 43.026 2.756 42.65 2.756C42.146 2.756 41.73 2.824 41.402 2.96C41.074 3.096 40.83 3.28 40.67 3.512C40.518 3.736 40.442 3.992 40.442 4.28C40.442 4.608 40.534 4.872 40.718 5.072C40.91 5.272 41.158 5.428 41.462 5.54C41.774 5.652 42.114 5.752 42.482 5.84C42.85 5.928 43.214 6.024 43.574 6.128C43.942 6.232 44.278 6.368 44.582 6.536C44.894 6.696 45.142 6.912 45.326 7.184C45.518 7.456 45.614 7.812 45.614 8.252C45.614 8.66 45.502 9.04 45.278 9.392C45.054 9.736 44.71 10.016 44.246 10.232C43.79 10.44 43.202 10.544 42.482 10.544Z" fill="white"/>
<path d="M1.84375 10.472L0.934276 10.0562L0.287071 11.472H1.84375V10.472ZM5.68375 2.072V1.072H5.04136L4.77428 1.65624L5.68375 2.072ZM6.55975 2.072L7.46922 1.65624L7.20214 1.072H6.55975V2.072ZM10.3998 10.472V11.472H11.9565L11.3093 10.0562L10.3998 10.472ZM9.46375 10.472L8.55097 10.8805L8.81568 11.472H9.46375V10.472ZM5.93575 2.588V1.588H4.3927L5.02297 2.99646L5.93575 2.588ZM6.29575 2.588L7.20853 2.99646L7.8388 1.588H6.29575V2.588ZM2.76775 10.472V11.472H3.41582L3.68053 10.8805L2.76775 10.472ZM3.35575 8.228L2.41687 7.88375L1.92398 9.228H3.35575V8.228ZM3.61975 7.508V6.508H2.92131L2.68087 7.16374L3.61975 7.508ZM8.50375 7.508L9.44263 7.16375L9.20219 6.508H8.50375V7.508ZM8.76775 8.228V9.228H10.1995L9.70663 7.88375L8.76775 8.228ZM14.5594 10.472H13.5594V11.472H14.5594V10.472ZM14.5594 2.84H15.5594V1.84H14.5594V2.84ZM11.6074 2.84H10.6074V3.84H11.6074V2.84ZM11.6074 2.072V1.072H10.6074V2.072H11.6074ZM18.3994 2.072H19.3994V1.072H18.3994V2.072ZM18.3994 2.84V3.84H19.3994V2.84H18.3994ZM15.4474 2.84V1.84H14.4474V2.84H15.4474ZM15.4474 10.472V11.472H16.4474V10.472H15.4474ZM21.3781 10.472H20.3781V11.472H21.3781V10.472ZM21.3781 2.072V1.072H20.3781V2.072H21.3781ZM22.2661 2.072H23.2661V1.072H22.2661V2.072ZM22.2661 9.704H21.2661V10.704H22.2661V9.704ZM26.9701 9.704H27.9701V8.704H26.9701V9.704ZM26.9701 10.472V11.472H27.9701V10.472H26.9701ZM28.6605 10.472L27.751 10.0562L27.1038 11.472H28.6605V10.472ZM32.5005 2.072V1.072H31.8581L31.591 1.65624L32.5005 2.072ZM33.3765 2.072L34.286 1.65624L34.0189 1.072H33.3765V2.072ZM37.2165 10.472V11.472H38.7732L38.126 10.0562L37.2165 10.472ZM36.2805 10.472L35.3677 10.8805L35.6324 11.472H36.2805V10.472ZM32.7525 2.588V1.588H31.2095L31.8397 2.99646L32.7525 2.588ZM33.1125 2.588L34.0253 2.99646L34.6555 1.588H33.1125V2.588ZM29.5845 10.472V11.472H30.2326L30.4973 10.8805L29.5845 10.472ZM30.1725 8.228L29.2336 7.88375L28.7407 9.228H30.1725V8.228ZM30.4365 7.508V6.508H29.7381L29.4976 7.16375L30.4365 7.508ZM35.3205 7.508L36.2594 7.16375L36.0189 6.508H35.3205V7.508ZM35.5845 8.228V9.228H37.0163L36.5234 7.88375L35.5845 8.228ZM40.682 10.244L40.3381 11.183L40.346 11.1859L40.354 11.1887L40.682 10.244ZM39.362 9.452L38.4707 8.99854L38.1458 9.63711L38.646 10.1501L39.362 9.452ZM39.71 8.768L40.4074 8.05128L39.4343 7.10456L38.8187 8.31454L39.71 8.768ZM40.898 9.5L40.524 10.4274L40.533 10.4311L40.542 10.4345L40.898 9.5ZM43.766 9.596L44.1296 10.5277L44.1412 10.5229L43.766 9.596ZM44.498 9.056L43.6843 8.47476L43.6773 8.48455L43.6705 8.4945L44.498 9.056ZM44.45 7.52L43.7141 8.19706L43.7213 8.20487L43.7286 8.21253L44.45 7.52ZM43.718 7.052L43.3508 7.98216L43.3615 7.98637L43.3723 7.99035L43.718 7.052ZM41.606 6.464L41.334 7.42631L41.3438 7.42906L41.3536 7.43162L41.606 6.464ZM40.586 6.056L40.1023 6.93129L40.1119 6.93647L40.586 6.056ZM39.842 5.396L39.0063 5.94518L39.0154 5.95909L39.025 5.97268L39.842 5.396ZM39.89 3.164L39.0463 2.62711L39.0431 2.63223L39.89 3.164ZM40.91 2.324L41.325 3.23382L41.3316 3.23083L41.3381 3.22774L40.91 2.324ZM44.066 2.204L43.7847 3.16363L43.7924 3.16587L43.8001 3.16799L44.066 2.204ZM45.266 2.744L46.1868 3.13415L46.5046 2.38401L45.8342 1.9211L45.266 2.744ZM44.966 3.452L44.4113 4.28405L45.4158 4.95369L45.8867 3.84215L44.966 3.452ZM43.814 2.924L43.5444 3.88698L43.5493 3.88833L43.814 2.924ZM40.67 3.512L39.8468 2.94425L39.8425 2.9505L40.67 3.512ZM40.718 5.072L39.9821 5.74906L39.9893 5.75687L39.9966 5.76453L40.718 5.072ZM41.462 5.54L41.1163 6.47838L41.1241 6.4812L41.462 5.54ZM43.574 6.128L43.2965 7.08873L43.302 7.09031L43.574 6.128ZM44.582 6.536L44.0983 7.41124L44.1119 7.41874L44.1257 7.42582L44.582 6.536ZM45.326 7.184L44.4977 7.74431L44.5033 7.75255L44.509 7.76068L45.326 7.184ZM45.278 9.392L46.116 9.9377L46.1217 9.92887L45.278 9.392ZM44.246 10.232L44.661 11.1418L44.668 11.1386L44.246 10.232ZM1.84375 10.472L2.75322 10.8878L6.59322 2.48776L5.68375 2.072L4.77428 1.65624L0.934276 10.0562L1.84375 10.472ZM5.68375 2.072V3.072H6.55975V2.072V1.072H5.68375V2.072ZM6.55975 2.072L5.65028 2.48776L9.49033 10.8878L10.3998 10.472L11.3093 10.0562L7.46922 1.65624L6.55975 2.072ZM10.3998 10.472V9.472H9.46375V10.472V11.472H10.3998V10.472ZM9.46375 10.472L10.3765 10.0635L6.84853 2.17954L5.93575 2.588L5.02297 2.99646L8.55097 10.8805L9.46375 10.472ZM5.93575 2.588V3.588H6.29575V2.588V1.588H5.93575V2.588ZM6.29575 2.588L5.38297 2.17954L1.85497 10.0635L2.76775 10.472L3.68053 10.8805L7.20853 2.99646L6.29575 2.588ZM2.76775 10.472V9.472H1.84375V10.472V11.472H2.76775V10.472ZM3.35575 8.228L4.29463 8.57226L4.55863 7.85225L3.61975 7.508L2.68087 7.16374L2.41687 7.88375L3.35575 8.228ZM3.61975 7.508V8.508H8.50375V7.508V6.508H3.61975V7.508ZM8.50375 7.508L7.56487 7.85225L7.82887 8.57225L8.76775 8.228L9.70663 7.88375L9.44263 7.16375L8.50375 7.508ZM8.76775 8.228V7.228H3.35575V8.228V9.228H8.76775V8.228ZM14.5594 10.472H15.5594V2.84H14.5594H13.5594V10.472H14.5594ZM14.5594 2.84V1.84H11.6074V2.84V3.84H14.5594V2.84ZM11.6074 2.84H12.6074V2.072H11.6074H10.6074V2.84H11.6074ZM11.6074 2.072V3.072H18.3994V2.072V1.072H11.6074V2.072ZM18.3994 2.072H17.3994V2.84H18.3994H19.3994V2.072H18.3994ZM18.3994 2.84V1.84H15.4474V2.84V3.84H18.3994V2.84ZM15.4474 2.84H14.4474V10.472H15.4474H16.4474V2.84H15.4474ZM15.4474 10.472V9.472H14.5594V10.472V11.472H15.4474V10.472ZM21.3781 10.472H22.3781V2.072H21.3781H20.3781V10.472H21.3781ZM21.3781 2.072V3.072H22.2661V2.072V1.072H21.3781V2.072ZM22.2661 2.072H21.2661V9.704H22.2661H23.2661V2.072H22.2661ZM22.2661 9.704V10.704H26.9701V9.704V8.704H22.2661V9.704ZM26.9701 9.704H25.9701V10.472H26.9701H27.9701V9.704H26.9701ZM26.9701 10.472V9.472H21.3781V10.472V11.472H26.9701V10.472ZM28.6605 10.472L29.57 10.8878L33.41 2.48776L32.5005 2.072L31.591 1.65624L27.751 10.0562L28.6605 10.472ZM32.5005 2.072V3.072H33.3765V2.072V1.072H32.5005V2.072ZM33.3765 2.072L32.467 2.48776L36.307 10.8878L37.2165 10.472L38.126 10.0562L34.286 1.65624L33.3765 2.072ZM37.2165 10.472V9.472H36.2805V10.472V11.472H37.2165V10.472ZM36.2805 10.472L37.1933 10.0635L33.6653 2.17954L32.7525 2.588L31.8397 2.99646L35.3677 10.8805L36.2805 10.472ZM32.7525 2.588V3.588H33.1125V2.588V1.588H32.7525V2.588ZM33.1125 2.588L32.1997 2.17954L28.6717 10.0635L29.5845 10.472L30.4973 10.8805L34.0253 2.99646L33.1125 2.588ZM29.5845 10.472V9.472H28.6605V10.472V11.472H29.5845V10.472ZM30.1725 8.228L31.1114 8.57225L31.3754 7.85225L30.4365 7.508L29.4976 7.16375L29.2336 7.88375L30.1725 8.228ZM30.4365 7.508V8.508H35.3205V7.508V6.508H30.4365V7.508ZM35.3205 7.508L34.3816 7.85225L34.6456 8.57225L35.5845 8.228L36.5234 7.88375L36.2594 7.16375L35.3205 7.508ZM35.5845 8.228V7.228H30.1725V8.228V9.228H35.5845V8.228ZM42.482 10.544V9.544C41.967 9.544 41.4781 9.46184 41.01 9.29933L40.682 10.244L40.354 11.1887C41.0379 11.4262 41.749 11.544 42.482 11.544V10.544ZM40.682 10.244L41.0259 9.30498C40.5513 9.13119 40.2554 8.93587 40.078 8.7539L39.362 9.452L38.646 10.1501C39.0926 10.6081 39.6767 10.9408 40.3381 11.183L40.682 10.244ZM39.362 9.452L40.2533 9.90546L40.6013 9.22146L39.71 8.768L38.8187 8.31454L38.4707 8.99854L39.362 9.452ZM39.71 8.768L39.0126 9.48473C39.4248 9.88571 39.9415 10.1925 40.524 10.4274L40.898 9.5L41.272 8.57256C40.8625 8.40746 40.5872 8.22629 40.4074 8.05128L39.71 8.768ZM40.898 9.5L40.542 10.4345C41.1624 10.6708 41.8112 10.788 42.482 10.788V9.788V8.788C42.0488 8.788 41.6416 8.71318 41.254 8.56551L40.898 9.5ZM42.482 9.788V10.788C43.0783 10.788 43.6429 10.7175 44.1295 10.5276L43.766 9.596L43.4025 8.66442C43.2331 8.73052 42.9417 8.788 42.482 8.788V9.788ZM43.766 9.596L44.1412 10.5229C44.5999 10.3373 45.0303 10.0525 45.3255 9.6175L44.498 9.056L43.6705 8.4945C43.6617 8.50751 43.6041 8.58271 43.3908 8.66905L43.766 9.596ZM44.498 9.056L45.3117 9.63724C45.5913 9.24583 45.738 8.7951 45.738 8.312H44.738H43.738C43.738 8.3729 43.7247 8.41817 43.6843 8.47476L44.498 9.056ZM44.738 8.312H45.738C45.738 7.77633 45.5743 7.24719 45.1714 6.82747L44.45 7.52L43.7286 8.21253C43.729 8.21289 43.7278 8.21166 43.7264 8.20937C43.725 8.2071 43.7251 8.2067 43.7262 8.20975C43.7283 8.21555 43.738 8.2454 43.738 8.312H44.738ZM44.45 7.52L45.1859 6.84294C44.8756 6.50568 44.4882 6.27007 44.0637 6.11366L43.718 7.052L43.3723 7.99035C43.5558 8.05794 43.6564 8.13433 43.7141 8.19706L44.45 7.52ZM43.718 7.052L44.0852 6.12185C43.7312 5.98211 43.3494 5.86471 42.9426 5.76742L42.71 6.74L42.4774 7.71258C42.8066 7.79129 43.0968 7.8819 43.3508 7.98216L43.718 7.052ZM42.71 6.74L42.9426 5.76742C42.5812 5.68102 42.2199 5.59067 41.8584 5.49638L41.606 6.464L41.3536 7.43162C41.7281 7.52933 42.1028 7.62299 42.4774 7.71258L42.71 6.74ZM41.606 6.464L41.878 5.50169C41.5746 5.41597 41.3031 5.30636 41.0601 5.17553L40.586 6.056L40.1119 6.93647C40.4929 7.14164 40.9014 7.30403 41.334 7.42631L41.606 6.464ZM40.586 6.056L41.0697 5.18076C40.892 5.08258 40.7601 4.96253 40.659 4.81932L39.842 5.396L39.025 5.97268C39.3079 6.37347 39.672 6.69342 40.1023 6.93124L40.586 6.056ZM39.842 5.396L40.6777 4.84682C40.6315 4.77645 40.566 4.62116 40.566 4.304H39.566H38.566C38.566 4.88284 38.6845 5.45555 39.0063 5.94518L39.842 5.396ZM39.566 4.304H40.566C40.566 4.07134 40.6235 3.87643 40.7369 3.69577L39.89 3.164L39.0431 2.63223C38.7246 3.13957 38.566 3.70466 38.566 4.304H39.566ZM39.89 3.164L40.7337 3.70088C40.8346 3.54234 41.0091 3.37791 41.325 3.23382L40.91 2.324L40.495 1.41418C39.8989 1.68609 39.3935 2.08166 39.0463 2.62712L39.89 3.164ZM40.91 2.324L41.3381 3.22774C41.617 3.09562 42.0412 3 42.662 3V2V1C41.8588 1 41.115 1.12037 40.4819 1.42026L40.91 2.324ZM42.662 2V3C43.0365 3 43.4098 3.05375 43.7847 3.16363L44.066 2.204L44.3473 1.24437C43.7942 1.08225 43.2315 1 42.662 1V2ZM44.066 2.204L43.8001 3.16799C44.175 3.27141 44.4688 3.40875 44.6978 3.5669L45.266 2.744L45.8342 1.9211C45.3912 1.61525 44.885 1.39259 44.3319 1.24001L44.066 2.204ZM45.266 2.744L44.3453 2.35385L44.0452 3.06185L44.966 3.452L45.8867 3.84215L46.1868 3.13415L45.266 2.744ZM44.966 3.452L45.5207 2.61995C45.0738 2.322 44.5922 2.10062 44.0787 1.95967L43.814 2.924L43.5493 3.88833C43.8518 3.97138 44.1382 4.102 44.4113 4.28405L44.966 3.452ZM43.814 2.924L44.0836 1.96104C43.6049 1.827 43.1261 1.756 42.65 1.756V2.756V3.756C42.9259 3.756 43.2231 3.797 43.5444 3.88696L43.814 2.924ZM42.65 2.756V1.756C42.0655 1.756 41.508 1.83351 41.019 2.03626L41.402 2.96L41.785 3.88374C41.952 3.81449 42.2265 3.756 42.65 3.756V2.756ZM41.402 2.96L41.019 2.03626C40.5591 2.22695 40.1414 2.51708 39.8468 2.94427L40.67 3.512L41.4932 4.07973C41.5186 4.04292 41.5889 3.96506 41.785 3.88374L41.402 2.96ZM40.67 3.512L39.8425 2.9505C39.5708 3.35098 39.442 3.80525 39.442 4.28H40.442H41.442C41.442 4.17875 41.4652 4.12102 41.4975 4.0735L40.67 3.512ZM40.442 4.28H39.442C39.442 4.80407 39.5945 5.32779 39.9821 5.74906L40.718 5.072L41.4539 4.39494C41.4571 4.3984 41.4577 4.40171 41.4553 4.39492C41.4519 4.38526 41.442 4.35093 41.442 4.28H40.442ZM40.718 5.072L39.9966 5.76453C40.3099 6.09087 40.6939 6.32274 41.1163 6.47834L41.462 5.54L41.8077 4.60166C41.6221 4.53327 41.5101 4.45313 41.4394 4.37947L40.718 5.072ZM41.462 5.54L41.1241 6.4812C41.475 6.60716 41.8507 6.71722 42.2494 6.81258L42.482 5.84L42.7146 4.86742C42.3773 4.78678 42.073 4.69684 41.7999 4.59881L41.462 5.54ZM42.482 5.84L42.2494 6.81258C42.6025 6.89701 42.9515 6.98906 43.2965 7.08871L43.574 6.128L43.8515 5.16729C43.4765 5.05894 43.0975 4.95899 42.7146 4.86742L42.482 5.84ZM43.574 6.128L43.302 7.09031C43.6037 7.17556 43.8677 7.28378 44.0983 7.41124L44.582 6.536L45.0657 5.66076C44.6883 5.45222 44.2803 5.28844 43.846 5.16569L43.574 6.128ZM44.582 6.536L44.1257 7.42582C44.2984 7.51439 44.4144 7.62111 44.4977 7.74431L45.326 7.184L46.1543 6.62369C45.8696 6.20289 45.4896 5.87761 45.0383 5.64618L44.582 6.536ZM45.326 7.184L44.509 7.76068C44.549 7.81725 44.614 7.95283 44.614 8.252H45.614H46.614C46.614 7.67117 46.487 7.09475 46.143 6.60732L45.326 7.184ZM45.614 8.252H44.614C44.614 8.46531 44.5587 8.65973 44.4343 8.85512L45.278 9.392L46.1217 9.92887C46.4453 9.42026 46.614 8.85468 46.614 8.252H45.614ZM45.278 9.392L44.44 8.84632C44.3406 8.99892 44.16 9.169 43.824 9.32542L44.246 10.232L44.668 11.1386C45.26 10.863 45.7674 10.4731 46.116 9.93767L45.278 9.392ZM44.246 10.232L43.831 9.32218C43.5493 9.4507 43.1166 9.544 42.482 9.544V10.544V11.544C43.2874 11.544 44.0308 11.4293 44.661 11.1418L44.246 10.232Z" fill="#F8F8F8" mask="url(#path-1-inside-1_1354_8010)"/>
<path d="M1 18.4722H13" stroke="#F8F8F8" stroke-width="0.5" stroke-linecap="round"/>
<mask id="path-4-inside-2_1354_8010" fill="white">
<path d="M17.0002 21.4721V16.3841H15.0322V15.8721H19.5602V16.3841H17.5922V21.4721H17.0002ZM22.1539 18.3761H25.1139V18.8801H22.1539V18.3761ZM22.2179 20.9601H25.586V21.4721H21.6259V15.8721H25.466V16.3841H22.2179V20.9601ZM27.2015 21.4721L29.7615 15.8721H30.3455L32.9055 21.4721H32.2815L29.9295 16.2161H30.1695L27.8175 21.4721H27.2015ZM28.2095 19.9761L28.3855 19.4961H31.6415L31.8175 19.9761H28.2095Z"/>
</mask>
<path d="M17.0002 21.4721V16.3841H15.0322V15.8721H19.5602V16.3841H17.5922V21.4721H17.0002ZM22.1539 18.3761H25.1139V18.8801H22.1539V18.3761ZM22.2179 20.9601H25.586V21.4721H21.6259V15.8721H25.466V16.3841H22.2179V20.9601ZM27.2015 21.4721L29.7615 15.8721H30.3455L32.9055 21.4721H32.2815L29.9295 16.2161H30.1695L27.8175 21.4721H27.2015ZM28.2095 19.9761L28.3855 19.4961H31.6415L31.8175 19.9761H28.2095Z" fill="white"/>
<path d="M17.0002 21.4721H16.0002V22.4721H17.0002V21.4721ZM17.0002 16.3841H18.0002V15.3841H17.0002V16.3841ZM15.0322 16.3841H14.0322V17.3841H15.0322V16.3841ZM15.0322 15.8721V14.8721H14.0322V15.8721H15.0322ZM19.5602 15.8721H20.5602V14.8721H19.5602V15.8721ZM19.5602 16.3841V17.3841H20.5602V16.3841H19.5602ZM17.5922 16.3841V15.3841H16.5922V16.3841H17.5922ZM17.5922 21.4721V22.4721H18.5922V21.4721H17.5922ZM22.1539 18.3761V17.3761H21.1539V18.3761H22.1539ZM25.1139 18.3761H26.1139V17.3761H25.1139V18.3761ZM25.1139 18.8801V19.8801H26.1139V18.8801H25.1139ZM22.1539 18.8801H21.1539V19.8801H22.1539V18.8801ZM22.2179 20.9601H21.2179V21.9601H22.2179V20.9601ZM25.586 20.9601H26.586V19.9601H25.586V20.9601ZM25.586 21.4721V22.4721H26.586V21.4721H25.586ZM21.6259 21.4721H20.6259V22.4721H21.6259V21.4721ZM21.6259 15.8721V14.8721H20.6259V15.8721H21.6259ZM25.466 15.8721H26.466V14.8721H25.466V15.8721ZM25.466 16.3841V17.3841H26.466V16.3841H25.466ZM22.2179 16.3841V15.3841H21.2179V16.3841H22.2179ZM27.2015 21.4721L26.2921 21.0563L25.6448 22.4721H27.2015V21.4721ZM29.7615 15.8721V14.8721H29.1191L28.8521 15.4563L29.7615 15.8721ZM30.3455 15.8721L31.255 15.4563L30.9879 14.8721H30.3455V15.8721ZM32.9055 21.4721V22.4721H34.4622L33.815 21.0563L32.9055 21.4721ZM32.2815 21.4721L31.3687 21.8805L31.6335 22.4721H32.2815V21.4721ZM29.9295 16.2161V15.2161H28.3865L29.0168 16.6245L29.9295 16.2161ZM30.1695 16.2161L31.0823 16.6245L31.7126 15.2161H30.1695V16.2161ZM27.8175 21.4721V22.4721H28.4656L28.7303 21.8805L27.8175 21.4721ZM28.2095 19.9761L27.2706 19.6318L26.7778 20.9761H28.2095V19.9761ZM28.3855 19.4961V18.4961H27.6871L27.4466 19.1518L28.3855 19.4961ZM31.6415 19.4961L32.5804 19.1518L32.34 18.4961H31.6415V19.4961ZM31.8175 19.9761V20.9761H33.2493L32.7564 19.6318L31.8175 19.9761ZM17.0002 21.4721H18.0002V16.3841H17.0002H16.0002V21.4721H17.0002ZM17.0002 16.3841V15.3841H15.0322V16.3841V17.3841H17.0002V16.3841ZM15.0322 16.3841H16.0322V15.8721H15.0322H14.0322V16.3841H15.0322ZM15.0322 15.8721V16.8721H19.5602V15.8721V14.8721H15.0322V15.8721ZM19.5602 15.8721H18.5602V16.3841H19.5602H20.5602V15.8721H19.5602ZM19.5602 16.3841V15.3841H17.5922V16.3841V17.3841H19.5602V16.3841ZM17.5922 16.3841H16.5922V21.4721H17.5922H18.5922V16.3841H17.5922ZM17.5922 21.4721V20.4721H17.0002V21.4721V22.4721H17.5922V21.4721ZM22.1539 18.3761V19.3761H25.1139V18.3761V17.3761H22.1539V18.3761ZM25.1139 18.3761H24.1139V18.8801H25.1139H26.1139V18.3761H25.1139ZM25.1139 18.8801V17.8801H22.1539V18.8801V19.8801H25.1139V18.8801ZM22.1539 18.8801H23.1539V18.3761H22.1539H21.1539V18.8801H22.1539ZM22.2179 20.9601V21.9601H25.586V20.9601V19.9601H22.2179V20.9601ZM25.586 20.9601H24.586V21.4721H25.586H26.586V20.9601H25.586ZM25.586 21.4721V20.4721H21.6259V21.4721V22.4721H25.586V21.4721ZM21.6259 21.4721H22.6259V15.8721H21.6259H20.6259V21.4721H21.6259ZM21.6259 15.8721V16.8721H25.466V15.8721V14.8721H21.6259V15.8721ZM25.466 15.8721H24.466V16.3841H25.466H26.466V15.8721H25.466ZM25.466 16.3841V15.3841H22.2179V16.3841V17.3841H25.466V16.3841ZM22.2179 16.3841H21.2179V20.9601H22.2179H23.2179V16.3841H22.2179ZM27.2015 21.4721L28.111 21.8878L30.671 16.2878L29.7615 15.8721L28.8521 15.4563L26.2921 21.0563L27.2015 21.4721ZM29.7615 15.8721V16.8721H30.3455V15.8721V14.8721H29.7615V15.8721ZM30.3455 15.8721L29.4361 16.2878L31.9961 21.8878L32.9055 21.4721L33.815 21.0563L31.255 15.4563L30.3455 15.8721ZM32.9055 21.4721V20.4721H32.2815V21.4721V22.4721H32.9055V21.4721ZM32.2815 21.4721L33.1943 21.0636L30.8423 15.8076L29.9295 16.2161L29.0168 16.6245L31.3687 21.8805L32.2815 21.4721ZM29.9295 16.2161V17.2161H30.1695V16.2161V15.2161H29.9295V16.2161ZM30.1695 16.2161L29.2568 15.8076L26.9048 21.0636L27.8175 21.4721L28.7303 21.8805L31.0823 16.6245L30.1695 16.2161ZM27.8175 21.4721V20.4721H27.2015V21.4721V22.4721H27.8175V21.4721ZM28.2095 19.9761L29.1484 20.3203L29.3244 19.8403L28.3855 19.4961L27.4466 19.1518L27.2706 19.6318L28.2095 19.9761ZM28.3855 19.4961V20.4961H31.6415V19.4961V18.4961H28.3855V19.4961ZM31.6415 19.4961L30.7027 19.8403L30.8787 20.3203L31.8175 19.9761L32.7564 19.6318L32.5804 19.1518L31.6415 19.4961ZM31.8175 19.9761V18.9761H28.2095V19.9761V20.9761H31.8175V19.9761Z" fill="#F8F8F8" mask="url(#path-4-inside-2_1354_8010)"/>
<path d="M35 18.4722H47" stroke="#F8F8F8" stroke-width="0.5" stroke-linecap="round"/>
</svg>
