<svg width="48" height="24" viewBox="0 0 48 24" fill="none" xmlns="http://www.w3.org/2000/svg">
<path d="M1.84375 10.472L5.68375 2.072H6.55975L10.3998 10.472H9.46375L5.93575 2.588H6.29575L2.76775 10.472H1.84375ZM3.35575 8.228L3.61975 7.508H8.50375L8.76775 8.228H3.35575ZM14.5594 10.472V2.84H11.6074V2.072H18.3994V2.84H15.4474V10.472H14.5594ZM21.3781 10.472V2.072H22.2661V9.704H26.9701V10.472H21.3781ZM28.6605 10.472L32.5005 2.072H33.3765L37.2165 10.472H36.2805L32.7525 2.588H33.1125L29.5845 10.472H28.6605ZM30.1725 8.228L30.4365 7.508H35.3205L35.5845 8.228H30.1725ZM42.482 10.544C41.858 10.544 41.258 10.444 40.682 10.244C40.114 10.036 39.674 9.772 39.362 9.452L39.71 8.768C40.006 9.056 40.402 9.3 40.898 9.5C41.402 9.692 41.93 9.788 42.482 9.788C43.01 9.788 43.438 9.724 43.766 9.596C44.102 9.46 44.346 9.28 44.498 9.056C44.658 8.832 44.738 8.584 44.738 8.312C44.738 7.984 44.642 7.72 44.45 7.52C44.266 7.32 44.022 7.164 43.718 7.052C43.414 6.932 43.078 6.828 42.71 6.74C42.342 6.652 41.974 6.56 41.606 6.464C41.238 6.36 40.898 6.224 40.586 6.056C40.282 5.888 40.034 5.668 39.842 5.396C39.658 5.116 39.566 4.752 39.566 4.304C39.566 3.888 39.674 3.508 39.89 3.164C40.114 2.812 40.454 2.532 40.91 2.324C41.366 2.108 41.95 2 42.662 2C43.134 2 43.602 2.068 44.066 2.204C44.53 2.332 44.93 2.512 45.266 2.744L44.966 3.452C44.606 3.212 44.222 3.036 43.814 2.924C43.414 2.812 43.026 2.756 42.65 2.756C42.146 2.756 41.73 2.824 41.402 2.96C41.074 3.096 40.83 3.28 40.67 3.512C40.518 3.736 40.442 3.992 40.442 4.28C40.442 4.608 40.534 4.872 40.718 5.072C40.91 5.272 41.158 5.428 41.462 5.54C41.774 5.652 42.114 5.752 42.482 5.84C42.85 5.928 43.214 6.024 43.574 6.128C43.942 6.232 44.278 6.368 44.582 6.536C44.894 6.696 45.142 6.912 45.326 7.184C45.518 7.456 45.614 7.812 45.614 8.252C45.614 8.66 45.502 9.04 45.278 9.392C45.054 9.736 44.71 10.016 44.246 10.232C43.79 10.44 43.202 10.544 42.482 10.544Z" fill="#3A3A3A"/>
<path d="M1 18.4722H13" stroke="#3A3A3A" stroke-width="0.5" stroke-linecap="round"/>
<path d="M17.0002 21.4721V16.3841H15.0322V15.8721H19.5602V16.3841H17.5922V21.4721H17.0002ZM22.1539 18.3761H25.1139V18.8801H22.1539V18.3761ZM22.2179 20.9601H25.586V21.4721H21.6259V15.8721H25.466V16.3841H22.2179V20.9601ZM27.2015 21.4721L29.7615 15.8721H30.3455L32.9055 21.4721H32.2815L29.9295 16.2161H30.1695L27.8175 21.4721H27.2015ZM28.2095 19.9761L28.3855 19.4961H31.6415L31.8175 19.9761H28.2095Z" fill="#3A3A3A"/>
<path d="M35 18.4722H47" stroke="#3A3A3A" stroke-width="0.5" stroke-linecap="round"/>
</svg>
