<svg width="22" height="22" viewBox="0 0 22 22" fill="none" xmlns="http://www.w3.org/2000/svg">
<g id="Group">
<path id="Vector" d="M20.5408 14.0001H16.0008C15.4703 14.0001 14.9616 14.2108 14.5866 14.5859C14.2115 14.9609 14.0008 15.4697 14.0008 16.0001V20.5401M6.00078 2.34009V4.00009C6.00078 4.79574 6.31685 5.5588 6.87946 6.12141C7.44207 6.68402 8.20513 7.00009 9.00078 7.00009C9.53121 7.00009 10.0399 7.2108 10.415 7.58587C10.7901 7.96095 11.0008 8.46965 11.0008 9.00009C11.0008 10.1001 11.9008 11.0001 13.0008 11.0001C13.5312 11.0001 14.0399 10.7894 14.415 10.4143C14.7901 10.0392 15.0008 9.53052 15.0008 9.00009C15.0008 7.90009 15.9008 7.00009 17.0008 7.00009H20.1708M10.0008 20.9501V17.0001C10.0008 16.4697 9.79007 15.9609 9.41499 15.5859C9.03992 15.2108 8.53121 15.0001 8.00078 15.0001C7.47035 15.0001 6.96164 14.7894 6.58657 14.4143C6.2115 14.0392 6.00078 13.5305 6.00078 13.0001V12.0001C6.00078 11.4697 5.79007 10.9609 5.415 10.5859C5.03992 10.2108 4.53121 10.0001 4.00078 10.0001H1.05078" stroke="#131313" stroke-width="2" stroke-linecap="round" stroke-linejoin="round"/>
<path id="Vector_2" d="M11 21C16.5228 21 21 16.5228 21 11C21 5.47715 16.5228 1 11 1C5.47715 1 1 5.47715 1 11C1 16.5228 5.47715 21 11 21Z" stroke="#131313" stroke-width="2" stroke-linecap="round" stroke-linejoin="round"/>
</g>
</svg>
