<svg width="20" height="20" viewBox="0 0 20 20" fill="none" xmlns="http://www.w3.org/2000/svg">
<g id="Group">
<path id="Vector" d="M9.99935 18.3327C14.6017 18.3327 18.3327 14.6017 18.3327 9.99935C18.3327 5.39698 14.6017 1.66602 9.99935 1.66602C5.39698 1.66602 1.66602 5.39698 1.66602 9.99935C1.66602 14.6017 5.39698 18.3327 9.99935 18.3327Z" stroke="#7A7A7A" stroke-width="1.5" stroke-linecap="round" stroke-linejoin="round"/>
<path id="Vector_2" d="M12.357 12.3577C11.8907 12.8235 11.2967 13.1406 10.6502 13.2689C10.0037 13.3972 9.33371 13.331 8.72483 13.0786C8.11596 12.8262 7.59559 12.3989 7.22948 11.8509C6.86337 11.3028 6.66797 10.6585 6.66797 9.99935C6.66797 9.34024 6.86337 8.69592 7.22948 8.14784C7.59559 7.59975 8.11596 7.17251 8.72483 6.92011C9.33371 6.66771 10.0037 6.60148 10.6502 6.7298C11.2967 6.85811 11.8907 7.17521 12.357 7.64102" stroke="#7A7A7A" stroke-width="1.5" stroke-linecap="round" stroke-linejoin="round"/>
</g>
</svg>
