<svg width="48" height="49" viewBox="0 0 48 49" fill="none" xmlns="http://www.w3.org/2000/svg">
<g id="Icons/ triangle-danger">
<path id="Vector" d="M29.6 9.72572L43.002 32.0477C44.928 35.2537 43.982 39.4717 40.888 41.4677C39.8496 42.1401 38.6391 42.4984 37.402 42.4997H10.596C6.954 42.4997 4 39.4397 4 35.6617C4 34.3837 4.346 33.1337 4.996 32.0477L18.4 9.72572C20.324 6.51972 24.392 5.53772 27.486 7.53372C28.342 8.08572 29.066 8.83572 29.6 9.72572ZM25.16 11.4037C24.9152 11.2462 24.6409 11.14 24.3539 11.0915C24.0668 11.0429 23.7729 11.0531 23.4899 11.1213C23.2069 11.1895 22.9407 11.3144 22.7073 11.4884C22.4739 11.6624 22.2782 11.882 22.132 12.1337L8.73 34.4597C8.5123 34.8236 8.39754 35.2397 8.398 35.6637C8.398 36.9237 9.382 37.9437 10.598 37.9437H37.4C37.812 37.9437 38.214 37.8237 38.562 37.5997C39.0614 37.2679 39.4135 36.7563 39.545 36.1714C39.6765 35.5864 39.5773 34.9733 39.268 34.4597L25.866 12.1337C25.6902 11.8398 25.4494 11.59 25.162 11.4037H25.16ZM24 34.4997C23.4696 34.4997 22.9609 34.289 22.5858 33.9139C22.2107 33.5389 22 33.0301 22 32.4997C22 31.9693 22.2107 31.4606 22.5858 31.0855C22.9609 30.7104 23.4696 30.4997 24 30.4997C24.5304 30.4997 25.0391 30.7104 25.4142 31.0855C25.7893 31.4606 26 31.9693 26 32.4997C26 33.0301 25.7893 33.5389 25.4142 33.9139C25.0391 34.289 24.5304 34.4997 24 34.4997ZM24 16.4997C24.5304 16.4997 25.0391 16.7104 25.4142 17.0855C25.7893 17.4606 26 17.9693 26 18.4997V26.4997C26 27.0301 25.7893 27.5389 25.4142 27.9139C25.0391 28.289 24.5304 28.4997 24 28.4997C23.4696 28.4997 22.9609 28.289 22.5858 27.9139C22.2107 27.5389 22 27.0301 22 26.4997V18.4997C22 17.9693 22.2107 17.4606 22.5858 17.0855C22.9609 16.7104 23.4696 16.4997 24 16.4997Z" fill="#D93545"/>
</g>
</svg>
