<svg width="32" height="32" viewBox="0 0 32 32" fill="none" xmlns="http://www.w3.org/2000/svg">
<g id="Icons/ triangle-danger">
<path id="Vector" d="M19.7327 6.15048L28.6673 21.0318C29.9513 23.1691 29.3207 25.9811 27.258 27.3118C26.5657 27.7601 25.7588 27.999 24.934 27.9998H7.06335C4.63535 27.9998 2.66602 25.9598 2.66602 23.4411C2.66602 22.5891 2.89668 21.7558 3.33002 21.0318L12.266 6.15048C13.5487 4.01314 16.2607 3.35848 18.3233 4.68914C18.894 5.05714 19.3767 5.55714 19.7327 6.15048ZM16.7727 7.26914C16.6095 7.16415 16.4266 7.09334 16.2353 7.06098C16.0439 7.02862 15.848 7.03539 15.6593 7.08088C15.4706 7.12636 15.2931 7.20962 15.1375 7.32563C14.9819 7.44163 14.8515 7.58797 14.754 7.75581L5.81935 22.6398C5.67421 22.8824 5.59771 23.1598 5.59802 23.4425C5.59802 24.2825 6.25402 24.9625 7.06468 24.9625H24.9327C25.2074 24.9625 25.4753 24.8825 25.7073 24.7331C26.0403 24.512 26.275 24.1709 26.3627 23.7809C26.4504 23.391 26.3842 22.9822 26.178 22.6398L17.2433 7.75581C17.1262 7.55984 16.9656 7.39335 16.774 7.26914H16.7727ZM15.9993 22.6665C15.6457 22.6665 15.3066 22.526 15.0565 22.276C14.8065 22.0259 14.666 21.6868 14.666 21.3331C14.666 20.9795 14.8065 20.6404 15.0565 20.3903C15.3066 20.1403 15.6457 19.9998 15.9993 19.9998C16.353 19.9998 16.6921 20.1403 16.9422 20.3903C17.1922 20.6404 17.3327 20.9795 17.3327 21.3331C17.3327 21.6868 17.1922 22.0259 16.9422 22.276C16.6921 22.526 16.353 22.6665 15.9993 22.6665ZM15.9993 10.6665C16.353 10.6665 16.6921 10.807 16.9422 11.057C17.1922 11.3071 17.3327 11.6462 17.3327 11.9998V17.3331C17.3327 17.6868 17.1922 18.0259 16.9422 18.276C16.6921 18.526 16.353 18.6665 15.9993 18.6665C15.6457 18.6665 15.3066 18.526 15.0565 18.276C14.8065 18.0259 14.666 17.6868 14.666 17.3331V11.9998C14.666 11.6462 14.8065 11.3071 15.0565 11.057C15.3066 10.807 15.6457 10.6665 15.9993 10.6665Z" fill="#FFB845"/>
</g>
</svg>
