<svg width="14" height="16" viewBox="0 0 14 16" fill="none" xmlns="http://www.w3.org/2000/svg">
<g id="Group">
<path id="Vector" d="M6.99967 0.833496C10.6817 0.833496 13.6663 3.81816 13.6663 7.50016C13.6663 11.1822 10.6817 14.1668 6.99967 14.1668C3.31767 14.1668 0.333008 11.1822 0.333008 7.50016C0.333008 3.81816 3.31767 0.833496 6.99967 0.833496ZM6.99967 2.16683C5.58519 2.16683 4.22863 2.72873 3.22844 3.72893C2.22824 4.72912 1.66634 6.08567 1.66634 7.50016C1.66634 8.91465 2.22824 10.2712 3.22844 11.2714C4.22863 12.2716 5.58519 12.8335 6.99967 12.8335C8.41416 12.8335 9.77072 12.2716 10.7709 11.2714C11.7711 10.2712 12.333 8.91465 12.333 7.50016C12.333 6.08567 11.7711 4.72912 10.7709 3.72893C9.77072 2.72873 8.41416 2.16683 6.99967 2.16683ZM6.99967 9.50016C7.17649 9.50016 7.34605 9.5704 7.47108 9.69543C7.5961 9.82045 7.66634 9.99002 7.66634 10.1668C7.66634 10.3436 7.5961 10.5132 7.47108 10.6382C7.34605 10.7633 7.17649 10.8335 6.99967 10.8335C6.82286 10.8335 6.65329 10.7633 6.52827 10.6382C6.40325 10.5132 6.33301 10.3436 6.33301 10.1668C6.33301 9.99002 6.40325 9.82045 6.52827 9.69543C6.65329 9.5704 6.82286 9.50016 6.99967 9.50016ZM6.99967 3.50016C7.17649 3.50016 7.34605 3.5704 7.47108 3.69543C7.5961 3.82045 7.66634 3.99002 7.66634 4.16683V8.16683C7.66634 8.34364 7.5961 8.51321 7.47108 8.63823C7.34605 8.76326 7.17649 8.8335 6.99967 8.8335C6.82286 8.8335 6.65329 8.76326 6.52827 8.63823C6.40325 8.51321 6.33301 8.34364 6.33301 8.16683V4.16683C6.33301 3.99002 6.40325 3.82045 6.52827 3.69543C6.65329 3.5704 6.82286 3.50016 6.99967 3.50016Z" fill="#C21F2E"/>
</g>
</svg>
