<svg width="32" height="32" viewBox="0 0 32 32" fill="none" xmlns="http://www.w3.org/2000/svg">
<g id="Icons/32px-icon / ionicons / outline / refresh-outline">
<path id="Vector (Stroke)" fill-rule="evenodd" clip-rule="evenodd" d="M9.88873 9.22883C11.6977 8.02014 13.8244 7.375 16 7.375C17.3978 7.375 18.3792 7.42221 19.0651 7.49828C19.6991 7.56862 20.2273 7.67564 20.5889 7.89457C20.7838 8.01259 21.0949 8.26453 21.1749 8.7115C21.2551 9.15982 21.0468 9.49004 20.9314 9.63383C20.8109 9.78394 20.6772 9.87971 20.6083 9.92551C20.5679 9.95237 20.532 9.97358 20.5046 9.98895C20.4906 9.99677 20.4783 10.0034 20.4678 10.0089C20.4645 10.0106 20.4614 10.0122 20.4585 10.0137C20.4568 10.0146 20.4551 10.0155 20.4534 10.0163C20.4513 10.0174 20.4492 10.0184 20.4473 10.0194L20.4445 10.0208L20.4432 10.0214C20.4425 10.0217 20.4419 10.0221 20 9.125L20.4419 10.0221C19.9465 10.2661 19.347 10.0623 19.1029 9.5669C19.0946 9.5499 19.0867 9.53277 19.0794 9.51554C19.0102 9.50574 18.9323 9.49582 18.8446 9.48609C18.2627 9.42154 17.3634 9.375 16 9.375C14.22 9.375 12.4799 9.90284 10.9999 10.8918C9.51983 11.8807 8.36628 13.2863 7.68509 14.9308C7.0039 16.5754 6.82567 18.385 7.17294 20.1308C7.5202 21.8766 8.37737 23.4803 9.63604 24.739C10.8947 25.9976 12.4984 26.8548 14.2442 27.2021C15.99 27.5493 17.7996 27.3711 19.4442 26.6899C21.0887 26.0087 22.4943 24.8552 23.4832 23.3751C24.4722 21.8951 25 20.155 25 18.375C25 17.8227 25.4477 17.375 26 17.375C26.5523 17.375 27 17.8227 27 18.375C27 20.5506 26.3549 22.6773 25.1462 24.4863C23.9375 26.2952 22.2195 27.7051 20.2095 28.5377C18.1995 29.3702 15.9878 29.5881 13.854 29.1636C11.7202 28.7392 9.76021 27.6916 8.22183 26.1532C6.68345 24.6148 5.6358 22.6548 5.21137 20.521C4.78693 18.3872 5.00477 16.1755 5.83733 14.1655C6.66989 12.1555 8.07979 10.4375 9.88873 9.22883Z" fill="#76A870"/>
<path id="Vector (Stroke)_2" fill-rule="evenodd" clip-rule="evenodd" d="M15.2929 2.91789C15.6834 2.52737 16.3166 2.52737 16.7071 2.91789L21.7071 7.91789C22.0976 8.30842 22.0976 8.94158 21.7071 9.33211L16.7071 14.3321C16.3166 14.7226 15.6834 14.7226 15.2929 14.3321C14.9024 13.9416 14.9024 13.3084 15.2929 12.9179L19.5858 8.625L15.2929 4.33211C14.9024 3.94158 14.9024 3.30842 15.2929 2.91789Z" fill="#76A870"/>
</g>
</svg>
