<svg width="32" height="32" viewBox="0 0 32 32" fill="none" xmlns="http://www.w3.org/2000/svg">
<g id="Icons/32px-hugeicons:spoon">
<path id="Vector" d="M28.1399 3.85959C25.8532 1.57159 20.8772 2.83959 18.3039 5.41293C16.9172 6.79959 16.5106 8.28226 16.7892 9.71426C17.0692 11.1543 17.0426 12.7796 15.9719 13.7836L3.33723 25.6529C3.12765 25.8478 2.95949 26.0828 2.8428 26.3441C2.72611 26.6054 2.66328 26.8875 2.65807 27.1737C2.65286 27.4598 2.70536 27.744 2.81246 28.0093C2.91955 28.2747 3.07904 28.5158 3.28138 28.7181C3.48373 28.9205 3.72478 29.0799 3.99014 29.187C4.2555 29.2941 4.53973 29.3466 4.82584 29.3414C5.11195 29.3362 5.39407 29.2734 5.65536 29.1567C5.91664 29.04 6.15173 28.8718 6.34656 28.6623L18.2159 16.0276C19.2199 14.9583 20.8452 14.9303 22.2852 15.2103C23.7172 15.4889 25.1999 15.0836 26.5866 13.6956C29.1599 11.1223 30.4266 6.14759 28.1399 3.85959Z" stroke="#76A870" stroke-width="2" stroke-linecap="round" stroke-linejoin="round"/>
</g>
</svg>
