<svg width="26" height="26" viewBox="0 0 26 26" fill="none" xmlns="http://www.w3.org/2000/svg">
<g id="Group">
<path id="Vector" d="M1 15.6667C2.10667 16.5227 3.76933 17.0227 5.66667 17C7.564 17.0227 9.22667 16.5227 10.3333 15.6667C11.44 14.8107 13.1027 14.3107 15 14.3333C16.8973 14.3107 18.56 14.8107 19.6667 15.6667M7.66667 1C7.24468 1.30289 6.90277 1.70396 6.67046 2.16857C6.43816 2.63317 6.32245 3.14734 6.33333 3.66667C6.32245 4.18599 6.43816 4.70016 6.67046 5.16477C6.90277 5.62937 7.24468 6.03044 7.66667 6.33333M13 1C12.578 1.30289 12.2361 1.70396 12.0038 2.16857C11.7715 2.63317 11.6558 3.14734 11.6667 3.66667C11.6558 4.18599 11.7715 4.70016 12.0038 5.16477C12.2361 5.62937 12.578 6.03044 13 6.33333" stroke="#76A870" stroke-width="2" stroke-linecap="round" stroke-linejoin="round"/>
<path id="Vector_2" d="M1 10.333H19.6667V16.9997C19.6667 19.1214 18.8238 21.1562 17.3235 22.6565C15.8232 24.1568 13.7884 24.9997 11.6667 24.9997H9C6.87827 24.9997 4.84344 24.1568 3.34315 22.6565C1.84285 21.1562 1 19.1214 1 16.9997V10.333Z" stroke="#76A870" stroke-width="2" stroke-linecap="round" stroke-linejoin="round"/>
<path id="Vector_3" d="M19.3281 19.3013C19.9236 19.5746 20.5771 19.6975 21.2312 19.6592C21.8853 19.6208 22.5199 19.4223 23.0793 19.0812C23.6387 18.7401 24.1058 18.2668 24.4395 17.7029C24.7731 17.139 24.9631 16.5018 24.9928 15.8473C25.0225 15.1928 24.891 14.5409 24.6098 13.9492C24.3285 13.3574 23.9062 12.8437 23.38 12.4534C22.8538 12.063 22.2397 11.8079 21.5918 11.7105C20.9438 11.6131 20.2819 11.6763 19.6641 11.8946" stroke="#76A870" stroke-width="2" stroke-linecap="round" stroke-linejoin="round"/>
</g>
</svg>
